<?xml version="1.0" standalone="no"?><!DOCTYPE svg PUBLIC "-//W3C//DTD SVG 1.1//EN" "http://www.w3.org/Graphics/SVG/1.1/DTD/svg11.dtd"><svg t="1566831658544" class="icon" viewBox="0 0 1024 1024" version="1.1" xmlns="http://www.w3.org/2000/svg" p-id="2191" xmlns:xlink="http://www.w3.org/1999/xlink" width="256" height="256"><defs><style type="text/css"></style></defs><path d="M837.137125 718.935026c-24.605398 0-47.461965 7.451716-66.517973 20.180622L641.382743 609.238648c20.778232-27.577079 33.245172-61.734016 33.245172-98.841146 0-52.791343-25.042349-99.729375-63.784722-129.879046l47.189765-82.898035c11.919471 3.978614 24.659633 6.221702 37.920658 6.221702 66.24475 0 120.157637-53.911864 120.157637-120.198569 0-66.271356-53.912887-120.184243-120.157637-120.184243-66.272379 0-120.187313 53.911864-120.187313 120.184243 0 36.233226 16.185634 68.679196 41.611723 90.747817l-47.188742 82.884732c-18.673292-7.370875-38.932708-11.568477-60.202127-11.568477-37.238113 0-71.52194 12.57848-99.107205 33.497928l-63.292512-63.61997c6.399757-11.703553 10.06217-25.117051 10.06217-39.377846 0-45.391816-36.908608-82.309634-82.293261-82.309634-45.384653 0-82.293261 36.917818-82.293261 82.309634 0 45.381583 36.908608 82.311681 82.293261 82.311681 14.107299 0 27.42256-3.582595 39.041178-9.871835l63.510476 63.824631c-20.366863 27.41335-32.56058 61.225433-32.56058 97.92324 0 32.773428 9.732665 63.277162 26.301016 88.969311L253.29182 701.967586c-20.039405-14.985296-44.810578-23.967878-71.712275-23.967878-66.245773 0-120.159684 53.911864-120.159684 120.198569 0 66.272379 53.91391 120.184243 120.159684 120.184243 66.272379 0 120.187313-53.911864 120.187313-120.184243 0-22.463618-6.316869-43.439348-17.08819-61.445444l117.671003-102.026698c28.898167 25.062815 66.463738 40.34794 107.638509 40.34794 36.826743 0 70.755484-12.305257 98.204649-32.81436l129.23641 129.86472c-12.932544 19.154245-20.47738 42.22059-20.47738 67.00916 0 66.272379 53.91391 120.198569 120.18629 120.198569 66.243727 0 120.159684-53.92619 120.159684-120.198569C957.296809 772.861216 903.380852 718.935026 837.137125 718.935026zM695.954639 110.289895c40.434921 0 73.325006 32.909527 73.325006 73.353658 0 40.458457-32.890085 73.369008-73.325006 73.369008-40.463574 0-73.353658-32.910551-73.353658-73.369008C622.599957 143.199423 655.490042 110.289895 695.954639 110.289895zM181.578522 871.550912c-40.435944 0-73.325006-32.910551-73.325006-73.353658 0-40.458457 32.890085-73.370031 73.325006-73.370031 40.463574 0 73.352635 32.911574 73.352635 73.370031C254.93218 838.640362 222.042095 871.550912 181.578522 871.550912zM837.137125 912.50158c-40.46255 0-73.352635-32.910551-73.352635-73.367985 0-40.456411 32.890085-73.366961 73.352635-73.366961 40.435944 0 73.326029 32.910551 73.326029 73.366961C910.463154 879.591029 877.573069 912.50158 837.137125 912.50158z" p-id="2192" fill="#8a8a8a"></path></svg>