<?xml version="1.0" standalone="no"?><!DOCTYPE svg PUBLIC "-//W3C//DTD SVG 1.1//EN" "http://www.w3.org/Graphics/SVG/1.1/DTD/svg11.dtd"><svg t="1568240200045" class="icon" viewBox="0 0 1024 1024" version="1.1" xmlns="http://www.w3.org/2000/svg" p-id="1948" xmlns:xlink="http://www.w3.org/1999/xlink" width="256" height="256"><defs><style type="text/css"></style></defs><path d="M373.9 128h427.7c10.4 0 18.9 8.5 18.9 18.9v729.9c0 10.4-8.5 18.9-18.9 18.9H222.7c-10.4 0-18.9-8.5-18.9-18.9V297.9c0-5.7 2.6-10.9 6.6-14.3l150.2-150.1c3.7-3.6 8.5-5.5 13.3-5.5z m18.8 37.7l-0.2 132.2c0 10.4-8.4 18.8-18.8 18.8v0.1H241.5v541.1h541.1V165.7H392.7zM268.2 279h86.7l0.1-86.7-86.8 86.7z" fill="#8a8a8a" p-id="1949"></path><path d="M298.2 757.2h427.6v25.2H298.2v-25.2z m0-235.9h163.6v25.2H298.2v-25.2z m351.5-118.5l23.9-37.4c0.6-0.9 1.5-1.5 2.7-1.5H731c1.2 0 2.2 0.6 2.8 1.7 0.6 1.1 0.5 2.2-0.2 3.2l-54.8 81.3c-0.7 1.1-0.7 2.4 0 3.5l59.3 87.9c0.7 1 0.7 2.2 0.2 3.2-0.6 1.1-1.6 1.7-2.8 1.7h-58.2c-1.1 0-2.1-0.6-2.7-1.5l-27.2-40.7c-1.3-1.9-4-2-5.3-0.1l-27.6 41c-0.6 0.9-1.5 1.4-2.6 1.4h-55.7c-1.2 0-2.2-0.6-2.8-1.7s-0.5-2.2 0.2-3.2l58.1-86.9c0.7-1.1 0.7-2.5 0-3.5l-68.1-96.5h-3.1v66.1c0 1.7-1.4 3.1-3.1 3.1h-47.2c-1.7 0-3.1-1.4-3.1-3.1V235.2c0-1.7 1.4-3.1 3.1-3.1H570c38.2 0 66.5 22.1 66.5 62 0 22.3-10 42-28.2 52.8-0.8 0.5-1.3 1.1-1.5 2-0.2 0.9-0.1 1.7 0.4 2.4l36.1 51.9c1.5 1.7 5.1 1.6 6.4-0.4zM540.4 282.2v25.2c0 1.7 1.4 3.1 3.1 3.1h16.8c5.3 0 14.1-0.4 18.3-4 3.1-2.7 3.7-8.8 3.7-12.7 0-3.8-0.5-8.4-3.6-11.1-4.1-3.5-13.3-3.7-18.4-3.7h-16.8c-1.7 0-3.1 1.5-3.1 3.2zM298.2 599.9H726v25.2H298.2v-25.2z m0.1 78.6h427.6v25.2H298.3v-25.2z" fill="#8a8a8a" p-id="1950"></path></svg>