<?xml version="1.0" standalone="no"?><!DOCTYPE svg PUBLIC "-//W3C//DTD SVG 1.1//EN" "http://www.w3.org/Graphics/SVG/1.1/DTD/svg11.dtd"><svg t="1564082888205" class="icon" viewBox="0 0 1024 1024" version="1.1" xmlns="http://www.w3.org/2000/svg" p-id="3237" xmlns:xlink="http://www.w3.org/1999/xlink" width="256" height="256"><defs><style type="text/css"></style></defs><path d="M896 102.4h-128v-25.6c0-12.8-12.8-25.6-25.6-25.6s-25.6 12.8-25.6 25.6v25.6h-409.6v-25.6c0-12.8-12.8-25.6-25.6-25.6s-25.6 12.8-25.6 25.6v25.6h-128c-12.8 0-25.6 12.8-25.6 25.6v819.2c0 12.8 12.8 25.6 25.6 25.6h768c12.8 0 25.6-12.8 25.6-25.6v-819.2c0-12.8-12.8-25.6-25.6-25.6z m-742.4 51.2h102.4v25.6c0 12.8 12.8 25.6 25.6 25.6s25.6-12.8 25.6-25.6v-25.6h409.6v25.6c0 12.8 12.8 25.6 25.6 25.6s25.6-12.8 25.6-25.6v-25.6h102.4v153.6h-716.8v-153.6z m716.8 768h-716.8v-563.2h716.8v563.2z" p-id="3238" fill="#8a8a8a"></path><path d="M435.2 563.2h51.2v51.2c0 12.8 12.8 25.6 25.6 25.6s25.6-12.8 25.6-25.6v-51.2h51.2c12.8 0 25.6-12.8 25.6-25.6s-12.8-25.6-25.6-25.6h-51.2v-51.2c0-12.8-12.8-25.6-25.6-25.6s-25.6 12.8-25.6 25.6v51.2h-51.2c-12.8 0-25.6 12.8-25.6 25.6s12.8 25.6 25.6 25.6zM281.6 742.4h460.8c12.8 0 25.6-12.8 25.6-25.6s-12.8-25.6-25.6-25.6h-460.8c-12.8 0-25.6 12.8-25.6 25.6s12.8 25.6 25.6 25.6zM281.6 844.8h460.8c12.8 0 25.6-12.8 25.6-25.6s-12.8-25.6-25.6-25.6h-460.8c-12.8 0-25.6 12.8-25.6 25.6s12.8 25.6 25.6 25.6z" p-id="3239" fill="#8a8a8a"></path></svg>