<?xml version="1.0" standalone="no"?><!DOCTYPE svg PUBLIC "-//W3C//DTD SVG 1.1//EN" "http://www.w3.org/Graphics/SVG/1.1/DTD/svg11.dtd"><svg t="1566831710631" class="icon" viewBox="0 0 1024 1024" version="1.1" xmlns="http://www.w3.org/2000/svg" p-id="3817" xmlns:xlink="http://www.w3.org/1999/xlink" width="256" height="256"><defs><style type="text/css"></style></defs><path d="M512 488.708332C786.316105 488.708332 1012.259471 386.006804 1012.259471 244.392046 1012.259471 102.777287 786.316105 0.075758 512 0.075758 237.683894 0.075758 11.74053 102.777287 11.74053 244.392046 11.74053 386.006804 237.683894 488.708332 512 488.708332L512 488.708332ZM512 426.647726C268.01988 426.647726 73.801136 338.36648 73.801136 244.392046 73.801136 150.417611 268.01988 62.136364 512 62.136364 755.98012 62.136364 950.198865 150.417611 950.198865 244.392046 950.198865 338.36648 755.98012 426.647726 512 426.647726L512 426.647726ZM987.387439 421.77423C1003.518393 446.132199 1012.259471 472.480995 1012.259471 500.335228 1012.259471 641.949985 786.316105 744.651515 512 744.651515 237.683894 744.651515 11.74053 641.949985 11.74053 500.335228 11.74053 472.480995 20.481607 446.132199 36.612563 421.77423 52.047875 434.181663 69.057317 445.95362 87.483331 457.003728 78.545725 471.098256 73.801136 485.647202 73.801136 500.335228 73.801136 594.309663 268.01988 682.590909 512 682.590909 755.98012 682.590909 950.198865 594.309663 950.198865 500.335228 950.198865 485.647202 945.454275 471.098256 936.516667 457.003728 954.942681 445.95362 971.952125 434.181663 987.387439 421.77423ZM987.387439 682.590909C1003.518393 706.948878 1012.259471 733.297673 1012.259471 761.151907 1012.259471 902.766666 786.316105 1005.468194 512 1005.468194 237.683894 1005.468194 11.74053 902.766666 11.74053 761.151907 11.74053 733.297673 20.481607 706.948878 36.612563 682.590909 52.047875 694.998345 69.057317 706.770302 87.483331 717.820407 78.545725 731.914935 73.801136 746.463881 73.801136 761.151907 73.801136 855.126342 268.01988 943.407588 512 943.407588 755.98012 943.407588 950.198865 855.126342 950.198865 761.151907 950.198865 746.463881 945.454275 731.914935 936.516667 717.820407 954.942681 706.770302 971.952125 694.998345 987.387439 682.590909Z" p-id="3818" fill="#8a8a8a"></path></svg>