<?xml version="1.0" standalone="no"?><!DOCTYPE svg PUBLIC "-//W3C//DTD SVG 1.1//EN" "http://www.w3.org/Graphics/SVG/1.1/DTD/svg11.dtd"><svg t="1564082864321" class="icon" viewBox="0 0 1024 1024" version="1.1" xmlns="http://www.w3.org/2000/svg" p-id="2240" xmlns:xlink="http://www.w3.org/1999/xlink" width="256" height="256"><defs><style type="text/css"></style></defs><path d="M604.16 215.04c-10.24 10.24-10.24 25.6 0 35.84 10.24 10.24 25.6 10.24 35.84 0 35.84-35.84 97.28-35.84 133.12 0 5.12 5.12 12.8 7.68 17.92 7.68s12.8-2.56 17.92-7.68c10.24-10.24 10.24-25.6 0-35.84-56.32-56.32-148.48-56.32-204.8 0z" p-id="2241" fill="#8a8a8a"></path><path d="M875.52 148.48c-46.08-46.08-110.08-71.68-171.52-71.68-61.44 0-122.88 23.04-171.52 71.68l-386.56 386.56c-94.72 94.72-94.72 248.32 0 340.48 46.08 46.08 110.08 71.68 171.52 71.68 61.44 0 122.88-23.04 171.52-71.68l386.56-386.56c94.72-94.72 94.72-248.32 0-340.48z m-422.4 691.2c-35.84 35.84-84.48 56.32-135.68 56.32s-99.84-20.48-135.68-56.32c-74.24-74.24-74.24-194.56 0-268.8l176.64-176.64 240.64 240.64 28.16 28.16-174.08 176.64z m386.56-386.56l-176.64 176.64-25.6-25.6-5.12-5.12-240.64-240.64 176.64-176.64c35.84-35.84 84.48-56.32 135.68-56.32s99.84 20.48 135.68 56.32c74.24 76.8 74.24 197.12 0 271.36z" p-id="2242" fill="#8a8a8a"></path></svg>