<?xml version="1.0" standalone="no"?><!DOCTYPE svg PUBLIC "-//W3C//DTD SVG 1.1//EN" "http://www.w3.org/Graphics/SVG/1.1/DTD/svg11.dtd"><svg t="1568805941816" class="icon" viewBox="0 0 1024 1024" version="1.1" xmlns="http://www.w3.org/2000/svg" p-id="3065" width="128" height="128" xmlns:xlink="http://www.w3.org/1999/xlink"><defs><style type="text/css"></style></defs><path d="M505.6 659.2c-51.2 0-102.4 19.2-134.4 51.2-12.8 12.8-32 12.8-44.8 0-19.2-12.8-12.8-38.4 0-57.6 32-25.6 76.8-44.8 121.6-57.6l57.6 64zM288 448c-44.8 19.2-83.2 44.8-115.2 76.8-12.8 12.8-12.8 38.4 0 51.2 12.8 12.8 38.4 12.8 44.8 0 38.4-32 76.8-57.6 121.6-76.8L288 448zM128 288c-38.4 25.6-83.2 57.6-115.2 96-12.8 12.8-12.8 38.4 0 51.2 12.8 12.8 32 12.8 44.8 0 38.4-38.4 76.8-70.4 121.6-96L128 288z m864 96C864 256 691.2 179.2 505.6 179.2c-76.8 0-147.2 12.8-211.2 32l57.6 57.6c44.8-12.8 96-19.2 153.6-19.2 172.8 0 326.4 70.4 441.6 179.2 12.8 19.2 32 19.2 44.8 0 12.8-6.4 19.2-32 0-44.8z m-486.4 12.8H480l76.8 76.8c83.2 6.4 166.4 44.8 224 102.4 12.8 12.8 32 12.8 44.8 0 19.2-12.8 19.2-38.4 0-51.2-83.2-76.8-198.4-128-320-128z m0 409.6c-38.4 0-70.4 32-70.4 70.4 0 38.4 32 70.4 70.4 70.4s70.4-32 70.4-70.4c0-44.8-32-70.4-70.4-70.4z m192-121.6l-64-64L480 467.2l-64-64L300.8 288l-57.6-57.6-38.4-38.4c-19.2-12.8-38.4-12.8-51.2 0-12.8 12.8-12.8 38.4 0 51.2l19.2 19.2 51.2 51.2 140.8 140.8 25.6 25.6 288 288c12.8 12.8 38.4 12.8 51.2 0 12.8-12.8 12.8-38.4 0-51.2l-32-32z" p-id="3066" fill="#1296db"></path></svg>