<?xml version="1.0" standalone="no"?><!DOCTYPE svg PUBLIC "-//W3C//DTD SVG 1.1//EN" "http://www.w3.org/Graphics/SVG/1.1/DTD/svg11.dtd"><svg t="1555056667613" class="icon" style="" viewBox="0 0 4380 1024" version="1.1" xmlns="http://www.w3.org/2000/svg" p-id="11359" xmlns:xlink="http://www.w3.org/1999/xlink" width="273.75" height="64"><defs><style type="text/css"></style></defs><path d="M543.716814 1014.938053l-141.366372-521.968141H398.725664L255.546903 1014.938053H170.364602L10.874336 393.288496h85.182301L217.486726 909.819469l139.553982-516.530973h88.80708l137.741593 516.530973h1.812389l126.867257-516.530973h83.369911L628.899115 1014.938053H543.716814zM1130.930973 985.939823c-34.435398 25.373451-76.120354 38.060177-126.867256 38.060177-36.247788 0-67.058407-5.437168-94.244248-18.123894-27.185841-10.874336-48.934513-27.185841-67.058407-48.934513-18.123894-21.748673-30.810619-45.309735-39.872566-74.307965-9.061947-28.99823-14.499115-59.80885-14.499115-94.244247 0-34.435398 5.437168-65.246018 16.311504-94.244248 10.874336-28.99823 25.373451-52.559292 43.497345-74.307965 18.123894-21.748673 41.684956-36.247788 67.058407-48.934513 25.373451-10.874336 54.371681-18.123894 85.182301-18.123894 39.872566 0 72.495575 9.061947 99.681416 25.373451 27.185841 16.311504 47.122124 38.060177 63.433628 63.433629 16.311504 25.373451 27.185841 52.559292 32.623009 83.369911s9.061947 57.99646 7.249558 86.99469H866.322124c0 19.936283 1.812389 38.060177 7.249557 56.184071 5.437168 18.123894 14.499115 32.623009 25.373452 47.122124 10.874336 14.499115 27.185841 25.373451 43.497345 32.623009 18.123894 7.249558 39.872566 12.686726 63.433628 12.686726 30.810619 0 56.184071-7.249558 76.120354-21.748673s32.623009-36.247788 39.872567-65.246018h72.495575c-9.061947 48.934513-30.810619 86.99469-63.433629 112.368142z m-18.123893-288.169911c-7.249558-16.311504-16.311504-28.99823-27.185841-39.872567s-25.373451-19.936283-39.872566-27.185841c-14.499115-7.249558-32.623009-10.874336-50.746903-10.874336-19.936283 0-36.247788 3.624779-52.559292 10.874336-14.499115 7.249558-28.99823 16.311504-39.872566 27.185841-10.874336 10.874336-19.936283 25.373451-25.373452 39.872567-7.249558 14.499115-10.874336 32.623009-10.874336 48.934513H1123.681416c0-16.311504-5.437168-34.435398-10.874336-48.934513zM1357.479646 393.288496V1014.938053h-74.307965V393.288496h74.307965zM1739.893805 643.39823c-18.123894-16.311504-43.497345-23.561062-74.307964-23.561062-27.185841 0-48.934513 5.437168-67.058407 14.499115s-32.623009 23.561062-43.497346 39.872567c-10.874336 16.311504-18.123894 34.435398-23.561061 56.18407-5.437168 21.748673-7.249558 43.497345-7.249558 65.246018 0 21.748673 1.812389 41.684956 7.249558 61.621239 5.437168 19.936283 12.686726 38.060177 23.561061 52.559292 10.874336 14.499115 23.561062 27.185841 41.684956 36.247788 16.311504 9.061947 36.247788 14.499115 59.80885 14.499115 36.247788 0 65.246018-9.061947 85.182301-28.99823s32.623009-45.309735 38.060177-81.557523h76.120354c-7.249558 56.184071-28.99823 99.681416-61.621239 128.679646-32.623009 30.810619-77.932743 45.309735-135.929204 45.309735-34.435398 0-65.246018-5.437168-90.619469-16.311504-27.185841-10.874336-48.934513-27.185841-67.058407-47.122124s-30.810619-45.309735-39.872566-72.495576c-9.061947-28.99823-12.686726-59.80885-12.686726-92.431858s3.624779-65.246018 12.686726-94.244248c9.061947-28.99823 21.748673-54.371681 39.872566-76.120354 18.123894-21.748673 39.872566-38.060177 67.058407-50.746902 27.185841-12.686726 57.99646-18.123894 92.431859-18.123894 25.373451 0 48.934513 3.624779 72.495575 9.061947 21.748673 5.437168 41.684956 16.311504 59.808849 28.99823 16.311504 12.686726 30.810619 28.99823 41.684956 48.934513 10.874336 19.936283 18.123894 41.684956 21.748673 68.870797h-76.120354c-9.061947-30.810619-19.936283-52.559292-39.872567-68.870797zM1928.382301 697.769912c9.061947-28.99823 23.561062-54.371681 41.684956-74.307965 18.123894-21.748673 41.684956-38.060177 68.870796-50.746903 27.185841-12.686726 57.99646-18.123894 94.244248-18.123894s67.058407 5.437168 94.244248 18.123894 48.934513 28.99823 68.870796 50.746903c18.123894 21.748673 32.623009 45.309735 41.684956 74.307965s14.499115 59.80885 14.499115 92.431858-5.437168 63.433628-14.499115 92.431858c-9.061947 28.99823-23.561062 52.559292-41.684956 74.307965-18.123894 21.748673-41.684956 38.060177-68.870796 48.934513-27.185841 12.686726-57.99646 18.123894-94.244248 18.123894s-67.058407-5.437168-94.244248-18.123894-50.746903-28.99823-68.870796-48.934513c-18.123894-21.748673-32.623009-45.309735-41.684956-74.307965-9.061947-28.99823-14.499115-59.80885-14.499115-92.431858s5.437168-63.433628 14.499115-92.431858z m76.120354 164.927433c7.249558 21.748673 18.123894 38.060177 30.810619 52.559292 12.686726 14.499115 27.185841 25.373451 45.309735 32.623009 16.311504 7.249558 34.435398 10.874336 54.371681 10.874336s38.060177-3.624779 54.371682-10.874336c16.311504-7.249558 32.623009-18.123894 45.309734-32.623009s23.561062-32.623009 30.81062-52.559292c7.249558-21.748673 10.874336-45.309735 10.874336-72.495575s-3.624779-50.746903-10.874336-72.495575c-7.249558-21.748673-18.123894-39.872566-30.81062-54.371682-12.686726-14.499115-27.185841-25.373451-45.309734-32.623009-16.311504-7.249558-34.435398-10.874336-54.371682-10.874336s-38.060177 3.624779-54.371681 10.874336c-16.311504 7.249558-32.623009 18.123894-45.309735 32.623009s-23.561062 32.623009-30.810619 54.371682c-7.249558 21.748673-10.874336 45.309735-10.874336 72.495575s3.624779 52.559292 10.874336 72.495575zM2508.346903 565.465487v65.246017h1.812389c34.435398-50.746903 81.557522-76.120354 144.99115-76.120354 27.185841 0 52.559292 5.437168 76.120354 18.123894s38.060177 30.810619 47.122124 59.80885c14.499115-23.561062 34.435398-43.497345 59.80885-56.184071 25.373451-12.686726 52.559292-19.936283 81.557522-19.936283 21.748673 0 43.497345 1.812389 61.621239 7.249557 18.123894 5.437168 34.435398 12.686726 47.122124 23.561062 12.686726 10.874336 23.561062 23.561062 30.810619 39.872567 7.249558 16.311504 10.874336 36.247788 10.874337 59.808849V1014.938053h-74.307965V719.518584c0-14.499115-1.812389-27.185841-3.624779-39.872566s-7.249558-23.561062-12.686725-32.623009c-7.249558-9.061947-14.499115-16.311504-27.185841-21.748673-10.874336-5.437168-25.373451-7.249558-43.497345-7.249557-36.247788 0-65.246018 10.874336-86.994691 30.810619-21.748673 21.748673-30.810619 48.934513-30.810619 83.369912V1014.938053h-74.307965V719.518584c0-14.499115-1.812389-27.185841-3.624778-39.872566-1.812389-12.686726-7.249558-23.561062-12.686726-32.623009-7.249558-9.061947-14.499115-16.311504-25.373451-21.748673-10.874336-5.437168-25.373451-7.249558-41.684956-7.249557-21.748673 0-39.872566 3.624779-54.371682 12.686725-14.499115 9.061947-27.185841 19.936283-38.060176 30.81062s-16.311504 25.373451-21.748673 38.060177c-3.624779 12.686726-7.249558 23.561062-7.249558 32.623009V1014.938053h-74.307964V565.465487h70.683186zM3499.723894 985.939823c-34.435398 25.373451-76.120354 38.060177-126.867257 38.060177-36.247788 0-67.058407-5.437168-94.244248-18.123894s-48.934513-27.185841-67.058407-48.934513c-18.123894-21.748673-30.810619-45.309735-39.872566-74.307965-9.061947-28.99823-14.499115-59.80885-14.499115-94.244247 0-34.435398 5.437168-65.246018 16.311504-94.244248 10.874336-28.99823 25.373451-52.559292 43.497345-74.307965s41.684956-36.247788 67.058408-48.934513 54.371681-18.123894 85.1823-18.123894c39.872566 0 72.495575 9.061947 99.681416 25.373451s47.122124 38.060177 63.433629 63.433629c16.311504 25.373451 27.185841 52.559292 32.623009 83.369911s9.061947 57.99646 7.249557 86.99469h-337.104425c0 19.936283 1.812389 38.060177 7.249558 56.184071 5.437168 18.123894 14.499115 32.623009 25.373451 47.122124 10.874336 14.499115 27.185841 25.373451 43.497345 32.623009 18.123894 7.249558 39.872566 12.686726 63.433629 12.686726 30.810619 0 56.184071-7.249558 76.120354-21.748673 19.936283-14.499115 32.623009-36.247788 39.872566-65.246018h72.495575c-9.061947 48.934513-30.810619 86.99469-63.433628 112.368142z m-18.123894-288.169911c-7.249558-16.311504-16.311504-28.99823-27.185841-39.872567s-25.373451-19.936283-39.872566-27.185841c-14.499115-7.249558-32.623009-10.874336-50.746903-10.874336-19.936283 0-36.247788 3.624779-52.559292 10.874336-14.499115 7.249558-28.99823 16.311504-39.872566 27.185841-10.874336 10.874336-19.936283 25.373451-25.373451 39.872567-7.249558 14.499115-10.874336 32.623009-10.874337 48.934513h259.171682c-1.812389-16.311504-7.249558-34.435398-12.686726-48.934513z" p-id="11360"></path><path d="M4141.309735 570.902655H3896.637168c-25.373451 0-45.309735-19.936283-45.309734-45.309735s19.936283-45.309735 45.309734-45.309734h244.672567c25.373451 0 45.309735 19.936283 45.309734 45.309734s-19.936283 45.309735-45.309734 45.309735zM3624.778761 320.79292c-25.373451 0-45.309735-19.936283-45.309734-45.309734V45.309735c0-25.373451 19.936283-45.309735 45.309734-45.309735s45.309735 19.936283 45.309735 45.309735v230.173451c0 25.373451-19.936283 45.309735-45.309735 45.309734zM3806.017699 398.725664c-10.874336 0-21.748673-3.624779-30.810619-12.686726-18.123894-18.123894-18.123894-45.309735-1.81239-63.433628l172.176991-181.238938c18.123894-18.123894 45.309735-18.123894 63.433629-1.81239 18.123894 18.123894 18.123894 45.309735 1.812389 63.433629l-172.176991 181.238938c-9.061947 9.061947-19.936283 14.499115-32.623009 14.499115z" p-id="11361"></path></svg>