<?xml version="1.0" standalone="no"?><!DOCTYPE svg PUBLIC "-//W3C//DTD SVG 1.1//EN" "http://www.w3.org/Graphics/SVG/1.1/DTD/svg11.dtd"><svg t="1567536709936" class="icon" viewBox="0 0 1025 1024" version="1.1" xmlns="http://www.w3.org/2000/svg" p-id="1699" xmlns:xlink="http://www.w3.org/1999/xlink" width="256.25" height="256"><defs><style type="text/css"></style></defs><path d="M1024 307.2c0-30.72-20.48-56.32-46.08-66.56L629.76 30.72C593.92 10.24 552.96 0 512 0c-40.96 0-81.92 10.24-117.76 30.72l-348.16 204.8c-20.48 10.24-35.84 25.6-40.96 46.08-5.12 10.24-5.12 15.36-5.12 25.6V783.36l384 209.92c35.84 20.48 81.92 30.72 122.88 30.72h5.12c30.72 0 51.2-25.6 51.2-51.2s-25.6-51.2-51.2-51.2-56.32-5.12-76.8-20.48L102.4 721.92V409.6l291.84 174.08c20.48 10.24 40.96 20.48 66.56 25.6V665.6c0 30.72 20.48 51.2 51.2 51.2s51.2-20.48 51.2-51.2v-51.2-5.12c20.48-5.12 46.08-10.24 66.56-25.6L921.6 409.6v163.84c0 30.72 20.48 51.2 51.2 51.2s51.2-20.48 51.2-51.2V307.2zM445.44 117.76c20.48-10.24 46.08-15.36 66.56-15.36s46.08 5.12 66.56 15.36l76.8 46.08-389.12 225.28L133.12 307.2l312.32-189.44z m133.12 378.88c-20.48 10.24-46.08 15.36-66.56 15.36s-46.08-5.12-66.56-15.36l-76.8-46.08 389.12-225.28L890.88 307.2l-312.32 189.44z" p-id="1700" fill="#8a8a8a"></path><path d="M1008.64 716.8c-20.48-20.48-51.2-20.48-71.68 0l-179.2 179.2-107.52-107.52c-20.48-20.48-51.2-20.48-71.68 0-20.48 20.48-20.48 51.2 0 71.68l143.36 143.36s5.12 5.12 10.24 5.12 5.12 5.12 10.24 5.12h40.96c5.12 0 5.12-5.12 10.24-5.12s5.12-5.12 10.24-5.12l215.04-215.04c10.24-15.36 10.24-51.2-10.24-71.68z" p-id="1701" fill="#8a8a8a"></path></svg>