<?xml version="1.0" standalone="no"?><!DOCTYPE svg PUBLIC "-//W3C//DTD SVG 1.1//EN" "http://www.w3.org/Graphics/SVG/1.1/DTD/svg11.dtd"><svg t="1564085069936" class="icon" viewBox="0 0 1024 1024" version="1.1" xmlns="http://www.w3.org/2000/svg" p-id="2674" xmlns:xlink="http://www.w3.org/1999/xlink" width="256" height="256"><defs><style type="text/css"></style></defs><path d="M510.72 880.64c-188.8 0-343.04-153.6-343.04-343.04 0-118.4 59.52-226.56 160-289.92 14.72-9.6 34.56-5.12 44.16 10.24 9.6 14.72 5.12 34.56-10.24 44.16C280.32 353.28 231.68 441.6 231.68 537.6c0 153.6 124.8 279.04 279.04 279.04S789.12 691.2 789.12 537.6c0-96-48.64-184.32-129.92-235.52-14.72-9.6-19.2-29.44-10.24-44.16 9.6-14.72 29.44-19.2 44.16-10.24 100.48 63.36 160 171.52 160 289.92 0 188.8-153.6 343.04-342.4 343.04z" fill="#ffffff" p-id="2675"></path><path d="M510.72 518.4c-17.92 0-32-14.08-32-32V181.76c0-17.92 14.08-32 32-32s32 14.08 32 32V486.4c0 17.92-14.72 32-32 32z" fill="#ffffff" p-id="2676"></path></svg>